<svg id="logo" version="1.1" xmlns="http://www.w3.org/2000/svg" xmlns:xlink="http://www.w3.org/1999/xlink" x="0px" y="0px"
	 viewBox="0 0 592 217" xml:space="preserve" >
<defs>
	<style type="text/css">
	    .st0{fill:#fff; stroke:url(#SVGID_1_);stroke-width:8;stroke-miterlimit:10;}
	    .st1{fill:#fff; stroke:url(#SVGID_2_);stroke-width:8;stroke-linejoin:round;stroke-miterlimit:10;}
	    .st0,.st1{
	      stroke-dasharray:2400;
	      stroke-dashoffset:0;
	      -webkit-animation:dash 4s linear forwards;
	      -o-animation:dash 4s linear forwards;
	      -moz-animation:dash 4s linear forwards;
	      animation:dash 4s linear forwards;
	    }

        #logo:hover .st0{
          fill: #EE2A7B;
          transition:1s;
        }
        
        #logo:hover .st1{
          fill: #EE2A7B;
          transition:1s;
        }

	    @-webkit-keyframes dash{
	      from{
	        stroke-dashoffset:2400;
	      }
	      to{
	        stroke-dashoffset:0;
	      }
	    }

    </style>
</defs>

<linearGradient id="SVGID_1_" gradientUnits="userSpaceOnUse" x1="60.0751" y1="30.3604" x2="119.4708" y2="30.3604">
	<stop  offset="0" style="stop-color:#E14693"/>
	<stop  offset="1" style="stop-color:#E7355C"/>
</linearGradient>
<circle class="st0" cx="89.8" cy="30.4" r="25.7"/>
<linearGradient id="SVGID_2_" gradientUnits="userSpaceOnUse" x1="1.864" y1="108.3021" x2="588.9668" y2="108.3021">
	<stop  offset="0" style="stop-color:#E14693"/>
	<stop  offset="1" style="stop-color:#E7355C"/>
</linearGradient>
<path class="st1" d="M559,159.2H366.2c-11-3.1-19.2-13.3-19.2-25.3v0c0-12.9,9.5-23.8,21.8-25.9h158.7c14.3,0,25.9-11.7,25.9-25.9v0
	c0-14.3-11.7-25.9-25.9-25.9h-55.6c13-1.3,23.3-12.4,23.3-25.8v0c0-14.3-11.7-25.9-25.9-25.9H163c-14.3,0-25.9,11.7-25.9,25.9v0
	c0,13.4,10.3,24.5,23.3,25.8H261c14.5,0,26.3,11.8,26.3,26.3v0c0,14.5-11.8,26.3-26.3,26.3h-232c-1,0-2-0.1-2.9-0.2
	c-11.6,2.6-20.3,13-20.3,25.3v0c0,14.3,11.7,25.9,25.9,25.9h152.4c-11.6,2.6-20.3,13-20.3,25.3v1.2c0,14.3,11.7,25.9,25.9,25.9H559
	c14.3,0,25.9-11.7,25.9-25.9v-1.2C585,170.8,573.3,159.2,559,159.2z"/>
</svg>
